<?xml version="1.0" encoding="UTF-8" standalone="no"?>
<svg
   xmlns:dc="http://purl.org/dc/elements/1.1/"
   xmlns:cc="http://creativecommons.org/ns#"
   xmlns:rdf="http://www.w3.org/1999/02/22-rdf-syntax-ns#"
   xmlns:svg="http://www.w3.org/2000/svg"
   xmlns="http://www.w3.org/2000/svg"
   xmlns:sodipodi="http://sodipodi.sourceforge.net/DTD/sodipodi-0.dtd"
   xmlns:inkscape="http://www.inkscape.org/namespaces/inkscape"
   version="1.1"
   id="svg1440"
   sodipodi:docname="new.svg"
   inkscape:version="0.92.3 (2405546, 2018-03-11)">
  <sodipodi:namedview
     pagecolor="#ffffff"
     bordercolor="#666666"
     borderopacity="1"
     objecttolerance="10"
     gridtolerance="10"
     guidetolerance="10"
     inkscape:pageopacity="0"
     inkscape:pageshadow="2"
     inkscape:window-width="1920"
     inkscape:window-height="1052"
     id="namedview8"
     showgrid="false"
     inkscape:zoom="5.6568543"
     inkscape:cx="49.731066"
     inkscape:cy="41.69972"
     inkscape:window-x="1920"
     inkscape:window-y="0"
     inkscape:window-maximized="1"
     inkscape:current-layer="svg1440">
    <inkscape:grid
       type="xygrid"
       id="grid846" />
  </sodipodi:namedview>
  <metadata
     id="metadata1446">
    <rdf:RDF>
      <cc:Work
         rdf:about="">
        <dc:format>image/svg+xml</dc:format>
        <dc:type
           rdf:resource="http://purl.org/dc/dcmitype/StillImage" />
        <dc:title></dc:title>
      </cc:Work>
    </rdf:RDF>
  </metadata>
  <defs
     id="defs1444">
    <clipPath
       clipPathUnits="userSpaceOnUse"
       id="clipPath966">
      <rect
         style="opacity:1;fill:#090404;fill-opacity:1;stroke:none;stroke-width:2;stroke-linejoin:round;stroke-miterlimit:4;stroke-dasharray:none;stroke-dashoffset:0;stroke-opacity:1;paint-order:fill markers stroke"
         id="rect968"
         width="36.150833"
         height="34.029507"
         x="-9.3639549e-09"
         y="67.738251" />
    </clipPath>
    <clipPath
       clipPathUnits="userSpaceOnUse"
       id="clipPath970">
      <rect
         style="opacity:1;fill:#090404;fill-opacity:1;stroke:none;stroke-width:2;stroke-linejoin:round;stroke-miterlimit:4;stroke-dasharray:none;stroke-dashoffset:0;stroke-opacity:1;paint-order:fill markers stroke"
         id="rect972"
         width="36.150833"
         height="34.029507"
         x="-9.3639549e-09"
         y="67.738251" />
    </clipPath>
    <clipPath
       clipPathUnits="userSpaceOnUse"
       id="clipPath974">
      <rect
         style="opacity:1;fill:#090404;fill-opacity:1;stroke:none;stroke-width:2;stroke-linejoin:round;stroke-miterlimit:4;stroke-dasharray:none;stroke-dashoffset:0;stroke-opacity:1;paint-order:fill markers stroke"
         id="rect976"
         width="36.150833"
         height="34.029507"
         x="-9.3639549e-09"
         y="67.738251" />
    </clipPath>
    <clipPath
       clipPathUnits="userSpaceOnUse"
       id="clipPath978">
      <rect
         style="opacity:1;fill:#090404;fill-opacity:1;stroke:none;stroke-width:2;stroke-linejoin:round;stroke-miterlimit:4;stroke-dasharray:none;stroke-dashoffset:0;stroke-opacity:1;paint-order:fill markers stroke"
         id="rect980"
         width="36.150833"
         height="34.029507"
         x="-9.3639549e-09"
         y="67.738251" />
    </clipPath>
    <clipPath
       clipPathUnits="userSpaceOnUse"
       id="clipPath982">
      <rect
         style="opacity:1;fill:#090404;fill-opacity:1;stroke:none;stroke-width:2;stroke-linejoin:round;stroke-miterlimit:4;stroke-dasharray:none;stroke-dashoffset:0;stroke-opacity:1;paint-order:fill markers stroke"
         id="rect984"
         width="36.150833"
         height="34.029507"
         x="-9.3639549e-09"
         y="67.738251" />
    </clipPath>
  </defs>
  <path
     style="stroke-width:1.24063826"
     clip-path="url(#clipPath982)"
     d="m 9.4394531,86.748047 -1.6855469,1.685547 c 0.3509788,0.395136 0.6985893,0.809942 1.0390626,1.267578 0.2153618,0.289472 0.4231347,0.547059 0.6289062,0.787109 l 0.638672,-0.638672 h 2.480469 z"
     id="path962"
     inkscape:export-xdpi="1670"
     inkscape:export-ydpi="1670"
     inkscape:connector-curvature="0"
     transform="matrix(2.7587655,0,0,2.7587655,0.13416441,-184.8883)" />
  <path
     style="color:#000000;font-style:normal;font-variant:normal;font-weight:normal;font-stretch:normal;font-size:medium;line-height:normal;font-family:sans-serif;font-variant-ligatures:normal;font-variant-position:normal;font-variant-caps:normal;font-variant-numeric:normal;font-variant-alternates:normal;font-feature-settings:normal;text-indent:0;text-align:start;text-decoration:none;text-decoration-line:none;text-decoration-style:solid;text-decoration-color:#000000;letter-spacing:normal;word-spacing:normal;text-transform:none;writing-mode:lr-tb;direction:ltr;text-orientation:mixed;dominant-baseline:auto;baseline-shift:baseline;text-anchor:start;white-space:normal;shape-padding:0;clip-rule:nonzero;display:inline;overflow:visible;visibility:visible;opacity:1;isolation:auto;mix-blend-mode:normal;color-interpolation:sRGB;color-interpolation-filters:linearRGB;solid-color:#000000;solid-opacity:1;vector-effect:none;fill:#008bcf;fill-opacity:1;fill-rule:nonzero;stroke:none;stroke-width:2.78653574;stroke-linecap:butt;stroke-linejoin:miter;stroke-miterlimit:4;stroke-dasharray:none;stroke-dashoffset:0;stroke-opacity:1;color-rendering:auto;image-rendering:auto;shape-rendering:auto;text-rendering:auto;enable-background:accumulate"
     clip-path="url(#clipPath978)"
     d="m -0.1328125,85.490234 c -0.23518611,0.0076 -0.46721985,0.02639 -0.6953125,0.05469 -0.9123704,0.113214 -1.7635687,0.381494 -2.5195312,0.730469 -3.0238498,1.395896 -4.8476563,4.046875 -4.8476563,4.046875 l 2.2695313,1.617187 c 0,0 1.5825549,-2.136916 3.7441406,-3.134765 1.080793,-0.498926 2.22514819,-0.720499 3.5019531,-0.371094 1.2768049,0.349408 2.7825193,1.310056 4.4335937,3.529297 1.8743446,2.519344 3.8804977,3.927246 5.8730468,4.46289 1.992549,0.535646 3.875529,0.167979 5.392578,-0.511719 0.07013,-0.03142 0.127116,-0.0657 0.195313,-0.09766 V 94.238281 L 16.1875,93.212891 c -0.102319,0.05184 -0.199598,0.111118 -0.304688,0.158203 -1.095328,0.49075 -2.260282,0.705473 -3.533203,0.363281 C 11.076765,93.39226 9.5990595,92.461281 7.9902344,90.298828 6.0795013,87.730578 4.0620045,86.296295 2.0585938,85.748047 1.3073146,85.542454 0.57274583,85.467467 -0.1328125,85.490234 Z m 27.8652345,0 c -1.176219,0.0383 -2.26989,0.348939 -3.214844,0.785157 -2.883565,1.331138 -4.614807,3.730101 -4.773437,3.955078 l 0.732421,0.732422 h 1.861329 l 0.261718,0.261718 c 0.889786,-0.894752 2.205214,-1.993667 3.083985,-2.419921 1.080793,-0.498925 2.227101,-0.720501 3.503906,-0.371094 1.276803,0.349408 2.780567,1.310056 4.431641,3.529297 1.874344,2.519345 3.880499,3.927245 5.873047,4.46289 1.99255,0.535645 3.875529,0.167981 5.392578,-0.511719 3.034098,-1.359397 4.904296,-3.951171 4.904296,-3.951171 l -2.236328,-1.664063 c 0,0 -1.614032,2.090764 -3.804687,3.072266 -1.095329,0.49075 -2.260282,0.705473 -3.533203,0.363281 -1.272924,-0.342192 -2.750549,-1.273094 -4.359375,-3.435547 -1.910731,-2.568253 -3.92823,-4.002533 -5.931641,-4.550781 -0.751278,-0.205593 -1.485675,-0.280792 -2.191406,-0.257813 z m -9.365234,6.191407 c -0.149156,0.135473 -0.305099,0.269497 -0.47461,0.408203 l 1.322266,1.320312 v 1.232422 c 0.816421,-0.595794 1.38774,-1.17653 1.833984,-1.679687 h -1.40039 z"
     id="path848-3"
     inkscape:export-xdpi="1670"
     inkscape:export-ydpi="1670"
     inkscape:connector-curvature="0"
     transform="matrix(2.7587655,0,0,2.7587655,0.13416441,-184.8883)" />
  <path
     style="fill:#a04023;fill-opacity:1;stroke:#f00000;stroke-width:1.24063826;stroke-opacity:0"
     d="m 12.259317,84.159892 c -0.510947,0.278664 -1.224517,0.495742 -1.810148,0.64319 -0.5856317,0.147442 -1.0435474,0.225199 -1.0435474,0.225199 l 8.8084674,8.795955 v 1.848248 l 3.709576,3.734599 3.722083,-3.709578 -3.722083,-3.734028 h -1.860763 z"
     id="blade"
     inkscape:connector-curvature="0"
     clip-path="url(#clipPath974)"
     inkscape:export-xdpi="1670.335"
     inkscape:export-ydpi="1670.335"
     transform="matrix(2.7587655,0,0,2.7587655,0.13416441,-184.8883)" />
  <path
     style="stroke-width:1.24063826"
     d="m 17.156179,76.20329 c -0.421818,0 -0.831056,0.111795 -1.190843,0.285481 -0.322563,0.148882 -0.620159,0.359343 -0.85588,0.619876 l -1.736784,1.923316 c -1.315076,1.451546 -3.7343714,2.567898 -5.7938313,2.530677 v 2.679677 c 0.3721933,0 0.7442554,-0.02441 1.1288527,-0.08644 0,0 0.4579208,-0.07771 1.0435504,-0.225199 0.5856292,-0.147443 1.2992002,-0.364532 1.8101452,-0.643191 1.066948,-0.459036 2.059012,-1.079713 2.840616,-1.724843 v 2.816162 l 4.441484,4.441481 c 0.707162,-0.682359 1.141361,-1.637547 1.141361,-2.679683 v -7.133659 c 0,-1.538393 -1.252749,-2.791245 -2.791139,-2.803652 z"
     id="body"
     inkscape:connector-curvature="0"
     clip-path="url(#clipPath970)"
     inkscape:export-xdpi="1670.335"
     inkscape:export-ydpi="1670.335"
     transform="matrix(2.7587655,0,0,2.7587655,0.13416441,-184.8883)" />
  <path
     d="m 17.503772,70 c -1.364702,0 -2.481274,1.116574 -2.481274,2.481274 0,1.364705 1.116572,2.481282 2.481274,2.481282 1.364703,0 2.481275,-1.116577 2.481275,-2.481282 C 19.985047,71.116574 18.868475,70 17.503772,70 Z"
     id="head"
     inkscape:connector-curvature="0"
     style="stroke-width:1.24063826"
     clip-path="url(#clipPath966)"
     inkscape:export-xdpi="1670.335"
     inkscape:export-ydpi="1670.335"
     transform="matrix(2.7587655,0,0,2.7587655,0.13416441,-184.8883)" />
</svg>
