<?xml version="1.0" standalone="no"?>
<!DOCTYPE svg PUBLIC "-//W3C//DTD SVG 20010904//EN"
 "http://www.w3.org/TR/2001/REC-SVG-20010904/DTD/svg10.dtd">
<svg version="1.0" xmlns="http://www.w3.org/2000/svg"
 width="309.000000pt" height="309.000000pt" viewBox="0 0 309.000000 309.000000"
 preserveAspectRatio="xMidYMid meet">
<metadata>
Created by potrace 1.11, written by Peter Selinger 2001-2013
</metadata>
<g transform="translate(0.000000,309.000000) scale(0.100000,-0.100000)"
fill="#000000" stroke="none">
<path d="M1478 3075 c-15 -8 -29 -23 -32 -33 -3 -9 -22 -26 -41 -36 -45 -25
-127 -106 -162 -161 -26 -42 -27 -42 -84 -41 -69 1 -102 -19 -138 -85 -21 -38
-34 -49 -100 -79 -296 -136 -543 -417 -649 -740 -52 -156 -64 -235 -69 -466
-4 -173 -2 -242 10 -320 32 -196 94 -369 189 -521 62 -99 212 -262 303 -329
l63 -46 -35 -46 c-19 -26 -39 -56 -44 -69 -10 -28 7 -80 31 -93 12 -6 318 -10
824 -10 789 0 806 0 826 20 43 43 34 91 -31 164 l-30 35 53 39 c271 200 446
502 509 877 19 110 15 412 -5 530 -79 445 -337 794 -725 978 -78 37 -96 51
-120 89 -36 57 -87 83 -147 74 -41 -5 -44 -4 -66 32 -31 52 -104 128 -147 154
-20 13 -52 40 -72 60 -39 41 -66 47 -111 23z"/>
</g>
</svg>
