<?xml version="1.0" encoding="UTF-8" standalone="no"?>
<!DOCTYPE svg PUBLIC "-//W3C//DTD SVG 1.1//EN" "http://www.w3.org/Graphics/SVG/1.1/DTD/svg11.dtd">
<svg version="1.1" xmlns="http://www.w3.org/2000/svg" xmlns:xlink="http://www.w3.org/1999/xlink" preserveAspectRatio="xMidYMid meet" viewBox="0 0 100 100" width="100" height="100"><defs><path d="M26.18 54.43C23.39 57.22 21.84 58.77 21.53 59.08C22.49 60.17 23.45 61.31 24.39 62.58C24.99 63.37 25.56 64.09 26.13 64.75C26.24 64.63 26.83 64.04 27.89 62.99L34.73 62.99L26.18 54.43Z" id="d18KxbKGNE"></path><path d="M-2.15 51.11C-4.67 51.42 -7.02 52.16 -9.1 53.13C-17.44 56.98 -22.47 64.29 -22.47 64.29C-21.85 64.74 -16.84 68.3 -16.21 68.75C-16.21 68.75 -11.85 62.86 -5.88 60.1C-2.9 58.73 0.25 58.12 3.78 59.08C7.3 60.04 11.45 62.69 16.01 68.82C21.18 75.77 26.71 79.65 32.21 81.13C37.71 82.61 42.9 81.59 47.09 79.72C47.28 79.63 47.44 79.53 47.63 79.45C47.63 79.16 47.63 77.71 47.63 75.09C45.93 73.4 44.98 72.45 44.79 72.26C44.51 72.41 44.24 72.57 43.95 72.7C40.93 74.05 37.72 74.65 34.2 73.7C30.69 72.76 26.62 70.19 22.18 64.22C16.91 57.14 11.34 53.18 5.81 51.67C3.74 51.1 1.71 50.9 -0.23 50.96C-0.88 50.98 -1.52 51.03 -2.15 51.11ZM67.77 53.13C59.82 56.8 55.04 63.42 54.6 64.04C54.74 64.17 55.41 64.84 56.62 66.06L61.76 66.06C62.19 66.49 62.43 66.73 62.48 66.78C64.94 64.31 68.56 61.28 70.99 60.1C73.97 58.73 77.13 58.12 80.66 59.08C84.18 60.04 88.33 62.69 92.88 68.82C98.05 75.77 103.59 79.65 109.08 81.13C114.58 82.61 119.78 81.59 123.96 79.72C132.33 75.97 137.49 68.82 137.49 68.82C136.87 68.36 131.94 64.68 131.32 64.22C131.32 64.22 126.87 69.99 120.82 72.7C117.8 74.05 114.59 74.65 111.08 73.7C107.57 72.76 103.49 70.19 99.05 64.22C93.78 57.14 88.21 53.18 82.69 51.67C80.61 51.1 78.59 50.9 76.64 50.96C73.4 51.06 70.38 51.92 67.77 53.13ZM50.8 68.04C50.39 68.41 49.96 68.78 49.5 69.17C49.74 69.41 50.95 70.62 53.14 72.81C53.14 74.85 53.14 75.98 53.14 76.21C55.4 74.56 56.97 72.96 58.2 71.57C57.95 71.57 56.66 71.57 54.34 71.57C52.45 69.69 51.28 68.51 50.8 68.04Z" id="a2b3Jkv30y"></path><path d="M33.95 47.29C32.55 48.06 30.58 48.66 28.96 49.06C27.35 49.47 26.08 49.68 26.08 49.68C27.7 51.3 35.8 59.39 50.38 73.95L50.38 79.05L60.62 89.35L70.88 79.12L60.62 68.82L55.48 68.82C44 57.34 36.83 50.16 33.95 47.29Z" id="d3EiLQylEG"></path><path d="M47.46 25.34C46.3 25.34 45.17 25.65 44.18 26.13C43.29 26.54 42.47 27.12 41.82 27.84C41.34 28.37 37.51 32.61 37.03 33.14C33.4 37.15 26.72 40.23 21.04 40.12C21.04 40.86 21.04 46.78 21.04 47.52C22.07 47.52 23.1 47.45 24.16 47.28C24.16 47.28 25.42 47.06 27.04 46.66C28.65 46.25 30.62 45.65 32.03 44.88C34.97 43.62 37.71 41.9 39.87 40.12C39.87 40.64 39.87 43.23 39.87 47.89C47.22 55.24 51.3 59.33 52.12 60.15C54.07 58.26 55.27 55.63 55.27 52.75C55.27 50.79 55.27 35.04 55.27 33.07C55.27 28.83 51.81 25.37 47.57 25.34C47.55 25.34 47.48 25.34 47.46 25.34Z" id="b6dcx7X9d"></path><path d="M41.58 15.07C41.58 18.84 44.66 21.92 48.42 21.92C52.19 21.92 55.27 18.84 55.27 15.07C55.27 11.31 52.19 8.23 48.42 8.23C44.66 8.23 41.58 11.31 41.58 15.07Z" id="a2gmZMqCB"></path></defs><g><g><g><use xlink:href="#d18KxbKGNE" opacity="1" fill="#2b303a" fill-opacity="1"></use><g><use xlink:href="#d18KxbKGNE" opacity="1" fill-opacity="0" stroke="#000000" stroke-width="1.24" stroke-opacity="0"></use></g></g><g><use xlink:href="#a2b3Jkv30y" opacity="1" fill="#008bcf" fill-opacity="1"></use><g><use xlink:href="#a2b3Jkv30y" opacity="1" fill-opacity="0" stroke="#000000" stroke-width="2.79" stroke-opacity="0"></use></g></g><g><use xlink:href="#d3EiLQylEG" opacity="1" fill="#a04023" fill-opacity="1"></use><g><use xlink:href="#d3EiLQylEG" opacity="1" fill-opacity="0" stroke="#f00000" stroke-width="1.24" stroke-opacity="0"></use></g></g><g><use xlink:href="#b6dcx7X9d" opacity="1" fill="#2b303a" fill-opacity="1"></use><g><use xlink:href="#b6dcx7X9d" opacity="1" fill-opacity="0" stroke="#000000" stroke-width="1.24" stroke-opacity="0"></use></g></g><g><use xlink:href="#a2gmZMqCB" opacity="1" fill="#2b303a" fill-opacity="1"></use><g><use xlink:href="#a2gmZMqCB" opacity="1" fill-opacity="0" stroke="#000000" stroke-width="1.24" stroke-opacity="0"></use></g></g></g></g></svg>