<?xml version="1.0" standalone="no"?>
<!DOCTYPE svg PUBLIC "-//W3C//DTD SVG 20010904//EN"
 "http://www.w3.org/TR/2001/REC-SVG-20010904/DTD/svg10.dtd">
<svg version="1.0" xmlns="http://www.w3.org/2000/svg"
 width="629.000000pt" height="629.000000pt" viewBox="0 0 629.000000 629.000000"
 preserveAspectRatio="xMidYMid meet">
<metadata>
Created by potrace 1.11, written by Peter Selinger 2001-2013
</metadata>
<g transform="translate(0.000000,629.000000) scale(0.100000,-0.100000)"
fill="#000000" stroke="none">
<path d="M2935 5765 c-319 -86 -426 -484 -193 -718 240 -242 646 -125 724 209
46 199 -71 418 -265 494 -69 27 -194 34 -266 15z"/>
<path d="M2859 4680 c-130 -40 -181 -80 -359 -279 -102 -114 -178 -196 -206
-225 -218 -219 -579 -384 -876 -403 l-98 -6 0 -46 c-1 -25 -2 -131 -3 -234
l-2 -188 80 5 c44 3 90 8 101 10 12 2 38 7 59 10 274 44 644 209 891 397 28
21 53 39 55 39 3 0 5 -108 4 -240 l0 -240 387 -387 387 -387 21 19 c63 57 149
227 168 332 5 29 8 356 7 750 -1 669 -2 700 -21 754 -90 252 -355 394 -595
319z"/>
<path d="M2088 3295 c-26 -14 -195 -74 -227 -80 -9 -2 -36 -8 -61 -15 -25 -7
-56 -14 -69 -17 -13 -2 -40 -7 -58 -11 l-35 -7 766 -765 766 -765 0 -161 0
-161 318 -322 c175 -176 322 -321 327 -321 6 0 154 144 329 319 l319 319 -324
326 -324 326 -163 -1 -162 0 -675 675 c-372 372 -681 676 -688 676 -6 -1 -24
-7 -39 -15z"/>
<path d="M5 3082 c-3 -3 -5 -112 -5 -242 l0 -237 73 -6 c313 -23 609 -224 909
-614 231 -303 427 -491 655 -631 188 -116 344 -172 578 -207 62 -9 245 -6 331
6 77 10 250 51 289 68 11 4 51 21 90 37 l70 30 0 137 0 136 -76 79 c-110 111
-99 106 -150 79 -119 -61 -281 -96 -427 -92 -116 3 -114 3 -223 35 -229 68
-466 252 -679 525 -30 39 -57 72 -60 75 -3 3 -27 34 -55 70 -188 245 -443 470
-665 587 -206 108 -383 157 -607 168 -24 1 -45 -1 -48 -3z"/>
<path d="M4703 3074 c-57 -7 -111 -15 -122 -19 -11 -3 -28 -8 -38 -10 -26 -5
-154 -44 -178 -54 -39 -16 -230 -111 -270 -133 -51 -29 -212 -140 -246 -170
-15 -13 -49 -42 -75 -64 -114 -97 -334 -336 -334 -363 0 -4 28 -34 63 -68 l62
-61 140 0 c190 0 182 1 204 -24 l20 -21 48 44 c26 24 61 57 78 72 57 53 224
186 297 235 102 69 236 125 358 150 19 4 96 7 170 6 120 0 145 -4 220 -28 139
-46 296 -135 401 -228 131 -115 211 -204 355 -389 74 -96 177 -212 274 -309
l155 -155 3 348 2 349 -67 86 c-210 270 -379 434 -590 573 -299 197 -599 272
-930 233z"/>
<path d="M1493 2717 l-142 -142 138 -172 c76 -95 141 -176 144 -180 4 -4 33
18 65 49 l57 55 212 -1 212 -1 -27 28 c-73 78 -506 507 -511 507 -3 0 -70 -64
-148 -143z"/>
</g>
</svg>
